<svg width="32" height="32" viewBox="0 0 32 32" xmlns="http://www.w3.org/2000/svg" xmlns:xlink="http://www.w3.org/1999/xlink">
    <path id="Path" fill="#000000" stroke="none" d="M 32 16 C 32 24.836555 24.836555 32 16 32 C 7.163444 32 -0 24.836555 -0 16 C -0 7.163445 7.163444 0 16 0 C 24.836555 0 32 7.163445 32 16 Z"/>
    <path id="path1" fill="#ffffff" stroke="none" d="M 9.301333 7.781334 C 9.301333 10.755556 11.144889 12.540445 14.830222 13.470222 L 18.741333 14.378666 C 22.222221 15.184 24.355556 17.173332 24.355556 20.417778 C 24.383917 21.83226 23.924385 23.213371 23.05422 24.32889 C 23.05422 21.093334 21.379557 19.35111 17.342222 18.284443 L 13.511111 17.422222 C 10.433778 16.711111 8.060445 15.079111 8.060445 11.555555 C 8.046098 10.194424 8.483779 8.866997 9.304889 7.781334"/>
    <path id="path2" fill="#ffffff" stroke="none" opacity="0.5" d="M 20.656 19.626667 C 22.32 20.693333 23.05422 22.183111 23.05422 24.325333 C 21.658667 26.090666 19.249777 27.082666 16.4 27.082666 C 11.619555 27.082666 8.234667 24.709335 7.511111 20.627556 L 12.108444 20.627556 C 12.702222 22.511999 14.271999 23.38311 16.364445 23.38311 C 18.922667 23.38311 20.631111 22.019556 20.656 19.626667"/>
    <path id="path3" fill="#ffffff" stroke="none" opacity="0.5" d="M 11.696 12.204445 C 10.096 11.180445 9.301333 9.738667 9.301333 7.781334 C 10.636445 6.030222 12.949332 4.959999 15.772445 4.959999 C 20.657778 4.959999 23.484446 7.541332 24.181334 11.171555 L 19.749332 11.171555 C 19.260445 9.740444 18.04089 8.623999 15.806223 8.623999 C 13.424001 8.623999 11.799111 10.00889 11.696 12.204445"/>
</svg>
